# xmcd CD database file
#
# Track frame offsets:
#	150
#	11572
#	58155
#	80232
#	91930
#	105165
#	118817
#	130915
#	146815
#	178262
#	190295
#	209637
#	222712
#	232127
#	250747
#
# Disc length: 3669 seconds
#
# Revision: 0
# Processed by: cddbd v1.5PL3 Copyright (c) Steve Scherf et al.
# Submitted via: CDex 1.51
#
DISCID=eb0e530f
DTITLE=Nina Simone - Classic Nina Simone
DYEAR=2003
DGENRE=Jazz
TTITLE0=I Loves You Porgy (Live)
TTITLE1=Sinnerman
TTITLE2=Mississippi Goddam (Live)
TTITLE3=I Put A Spell On You
TTITLE4=Feeling Good
TTITLE5=Gimme Some
TTITLE6=Nobody Knows When You're Down And Out
TTITLE7=Strange Fruit
TTITLE8=Wild Is The Wind
TTITLE9=Break Down And Let It All Out
TTITLE10=Lilac Wine
TTITLE11=Take Me To The Water
TTITLE12=Brown Eyed Handsome Man
TTITLE13=I Love My Baby
TTITLE14=Don't Smoke In Bed (Live)
EXTD=YEAR: 2003
EXTT0=
EXTT1=
EXTT2=
EXTT3=
EXTT4=
EXTT5=
EXTT6=
EXTT7=
EXTT8=
EXTT9=
EXTT10=
EXTT11=
EXTT12=
EXTT13=
EXTT14=
PLAYORDER=
